<?xml version="1.0" standalone="no"?>
<!DOCTYPE svg PUBLIC "-//W3C//DTD SVG 20010904//EN"
 "http://www.w3.org/TR/2001/REC-SVG-20010904/DTD/svg10.dtd">
<svg version="1.0" xmlns="http://www.w3.org/2000/svg"
 width="1182.000000pt" height="1182.000000pt" viewBox="0 0 1182.000000 1182.000000"
 preserveAspectRatio="xMidYMid meet">

<g transform="translate(0.000000,1182.000000) scale(0.100000,-0.100000)"
fill="#000000" stroke="none">
<path d="M5600 11804 c-1075 -64 -2071 -392 -2950 -972 -977 -645 -1756 -1591
-2206 -2677 -328 -795 -485 -1723 -434 -2575 64 -1074 390 -2054 978 -2943
163 -246 469 -637 483 -616 8 13 251 5 359 -13 221 -35 425 -121 525 -222 36
-36 73 -86 90 -121 27 -54 30 -70 30 -160 0 -110 -20 -183 -74 -282 l-29 -52
112 -79 c640 -458 1393 -792 2161 -957 473 -102 901 -142 1385 -132 349 8 597
32 920 88 148 26 422 88 434 99 4 4 7 151 7 327 l-2 318 -43 45 c-162 168
-269 383 -268 540 0 102 28 174 97 248 67 72 139 115 273 164 256 92 681 91
982 -3 300 -94 407 -119 530 -126 201 -11 348 55 615 277 150 124 190 144 285
145 58 0 84 -5 116 -22 74 -39 132 -123 164 -236 l16 -59 82 87 c265 280 555
670 772 1040 113 192 294 564 378 775 398 1002 516 2075 346 3145 -237 1487
-1061 2851 -2279 3768 -878 661 -1892 1054 -3005 1162 -157 16 -702 27 -850
19z m358 -876 c-6 -18 -28 -21 -28 -4 0 9 7 16 16 16 9 0 14 -5 12 -12z m339
-35 c-4 -17 -4 -17 -12 0 -4 9 -4 25 0 35 8 16 8 16 12 0 3 -10 3 -26 0 -35z
m-77 -27 c0 -16 -18 -31 -27 -22 -8 8 5 36 17 36 5 0 10 -6 10 -14z m134 -131
c-8 -19 -44 -40 -44 -26 0 8 38 41 47 41 1 0 0 -7 -3 -15z m151 -44 c-3 -6
-11 -11 -17 -11 -6 0 -6 6 2 15 14 17 26 13 15 -4z m35 -53 c0 -14 -30 -48
-42 -48 -14 0 -9 32 8 51 17 19 34 17 34 -3z m223 -53 c-3 -9 -8 -14 -10 -11
-3 3 -2 9 2 15 9 16 15 13 8 -4z m19 -197 c-7 -7 -12 -8 -12 -2 0 14 12 26 19
19 2 -3 -1 -11 -7 -17z m-710 -80 c-12 -12 -32 -2 -32 17 0 7 8 21 18 31 16
17 17 16 20 -10 2 -16 -1 -33 -6 -38z m34 -34 c-15 -14 -30 -23 -32 -21 -9 9
10 39 30 47 33 12 34 1 2 -26z m156 -56 c-15 -15 -43 -2 -36 16 3 8 13 16 22
18 20 4 29 -19 14 -34z m678 -103 c-7 -8 -17 -15 -22 -15 -6 0 -5 7 2 15 7 8
17 15 22 15 6 0 5 -7 -2 -15z m180 11 c0 -2 -7 -7 -16 -10 -8 -3 -12 -2 -9 4
6 10 25 14 25 6z m30 -106 c0 -5 -4 -10 -10 -10 -5 0 -10 5 -10 10 0 6 5 10
10 10 6 0 10 -4 10 -10z m-1560 -174 c0 -2 -7 -7 -16 -10 -8 -3 -12 -2 -9 4 6
10 25 14 25 6z m460 -80 c0 -14 -4 -27 -9 -30 -12 -8 -22 20 -15 39 9 23 24
18 24 -9z m748 -96 c-13 -21 -28 -27 -28 -10 0 5 8 14 18 19 23 14 24 14 10
-9z m-718 0 c0 -5 -7 -10 -15 -10 -8 0 -15 5 -15 10 0 6 7 10 15 10 8 0 15 -4
15 -10z m48 -57 c-4 -39 -28 -42 -28 -4 0 21 5 31 16 31 11 0 14 -8 12 -27z
m1007 -102 c-3 -6 -11 -11 -17 -11 -6 0 -6 6 2 15 14 17 26 13 15 -4z m-1895
-48 c-1 -11 -26 -43 -34 -43 -10 0 -7 25 6 38 13 13 28 16 28 5z m60 -38 c-7
-8 -16 -12 -21 -9 -13 8 -1 24 18 24 13 0 13 -3 3 -15z m170 -13 c0 -13 -12
-22 -22 -16 -10 6 -1 24 13 24 5 0 9 -4 9 -8z m-210 -9 c-1 -25 -14 -53 -26
-53 -10 0 -11 6 -3 30 10 27 29 42 29 23z m120 -45 c0 -10 -6 -18 -12 -18 -22
-1 -55 -34 -62 -62 -9 -41 12 -35 30 8 10 24 20 34 32 32 22 -5 17 -38 -9 -60
-25 -21 -24 -38 1 -31 26 7 27 -22 1 -37 -44 -23 -62 -195 -21 -195 14 0 47
79 49 118 1 27 -18 20 -25 -9 -4 -16 -9 -22 -14 -14 -10 16 27 85 45 85 9 0
21 9 28 21 24 43 66 102 76 108 13 9 41 -4 41 -18 0 -7 -14 -25 -31 -42 -41
-39 -60 -77 -65 -133 -2 -25 -5 -57 -6 -71 -2 -17 3 -26 15 -28 12 -2 17 3 17
17 0 11 5 23 10 26 6 3 10 21 10 40 0 37 18 85 32 85 4 0 8 -17 8 -37 0 -20 7
-45 17 -55 15 -17 15 -19 -2 -32 -11 -8 -16 -20 -12 -30 4 -11 1 -16 -10 -16
-20 0 -53 -29 -53 -47 0 -16 12 -17 28 -1 9 9 15 9 24 0 18 -18 27 -15 38 13
6 15 17 25 30 25 15 0 20 -7 20 -25 0 -14 -4 -25 -8 -25 -12 0 -32 -62 -32
-98 0 -17 -4 -34 -10 -37 -13 -8 -13 -27 1 -62 15 -39 25 -16 32 74 6 76 21
121 31 93 3 -8 6 -23 8 -33 2 -10 8 -18 13 -18 11 0 16 24 43 180 4 24 15 49
24 55 24 15 34 0 15 -22 -10 -10 -17 -26 -17 -35 0 -9 -4 -18 -9 -22 -6 -3 -8
-30 -6 -61 4 -42 1 -56 -10 -60 -22 -9 -18 -34 4 -34 24 0 31 -20 24 -66 -5
-29 -3 -36 8 -32 9 3 17 27 21 64 11 97 19 122 39 127 14 4 21 -1 25 -19 10
-38 22 -28 29 25 4 27 12 57 19 67 15 20 36 11 36 -16 0 -10 5 -22 10 -25 6
-4 8 -21 4 -39 -6 -37 6 -47 49 -39 19 4 27 12 29 31 2 14 8 27 14 29 13 4 26
-59 14 -67 -4 -3 -8 -18 -8 -33 0 -16 -4 -33 -9 -38 -9 -9 -5 -29 24 -119 8
-26 34 51 28 82 -9 38 1 35 47 -12 22 -22 44 -40 49 -40 5 0 9 -8 9 -19 0 -20
27 -48 36 -38 10 10 -39 96 -58 103 -10 3 -18 12 -18 20 0 23 30 28 60 10 38
-22 60 -20 60 4 0 27 20 25 64 -5 20 -14 41 -25 47 -25 5 0 24 -7 40 -16 33
-16 51 -12 31 8 -21 21 -13 28 26 24 39 -3 72 -18 106 -49 12 -10 37 -27 57
-37 20 -11 48 -33 62 -50 28 -33 47 -39 47 -15 0 27 21 15 36 -21 10 -23 21
-34 32 -33 26 3 75 -12 101 -32 13 -10 27 -16 32 -13 5 3 13 -6 19 -20 5 -14
16 -26 24 -26 8 0 18 -9 21 -20 3 -11 13 -20 21 -20 11 0 13 7 8 28 -6 24 -5
25 8 14 9 -7 19 -24 22 -37 10 -41 59 -57 183 -60 62 -1 125 -8 140 -14 16 -6
41 -32 57 -56 15 -25 32 -45 36 -45 5 0 26 -16 47 -35 21 -19 46 -35 55 -35 9
0 23 -7 31 -15 8 -7 26 -17 41 -21 22 -5 26 -3 26 15 0 18 4 20 28 15 38 -9
48 -20 33 -38 -16 -19 -8 -32 24 -38 27 -6 32 1 13 20 -14 14 3 22 42 19 16
-1 26 4 28 16 2 9 -1 17 -6 17 -13 0 -92 70 -92 82 0 13 43 9 64 -7 27 -20 36
-19 36 5 0 15 7 20 29 20 33 0 48 25 23 39 -18 10 -13 21 12 25 9 1 27 12 40
25 23 22 25 22 34 4 10 -20 6 -41 -15 -61 -7 -7 -13 -21 -13 -29 0 -17 -40
-107 -90 -203 -15 -30 -38 -95 -50 -145 -38 -152 -58 -194 -124 -260 -38 -37
-86 -73 -127 -93 -36 -17 -82 -43 -102 -56 -20 -14 -39 -21 -42 -17 -2 5 -49
-7 -102 -25 -54 -19 -111 -34 -126 -34 -15 0 -44 -7 -65 -16 -36 -16 -36 -17
-12 -23 29 -8 145 10 177 27 12 7 32 12 45 12 13 0 37 9 53 20 17 11 33 20 38
20 9 0 -21 -59 -40 -79 -8 -8 -25 -30 -37 -50 -13 -20 -62 -74 -109 -121 -76
-75 -96 -89 -177 -123 -50 -22 -97 -36 -104 -34 -9 4 -19 -11 -30 -45 -20 -62
-20 -78 -1 -78 11 0 14 7 9 25 -4 15 -2 25 5 25 21 0 12 -50 -32 -172 -11 -33
-60 -84 -100 -104 -46 -24 -137 -21 -186 7 l-41 23 -43 -20 c-38 -19 -46 -19
-86 -8 -24 8 -48 17 -55 22 -6 5 -29 13 -51 16 -22 4 -82 23 -134 42 -51 19
-96 33 -98 30 -10 -9 10 -28 44 -42 18 -8 70 -34 113 -59 71 -38 86 -43 132
-40 29 2 61 6 71 10 11 5 17 2 17 -8 0 -20 -89 -57 -137 -57 -21 0 -49 -7 -63
-15 -89 -52 -135 -66 -229 -72 -81 -5 -107 -2 -168 17 -101 31 -213 107 -284
195 -31 39 -79 95 -107 125 l-50 53 -46 -22 c-26 -12 -51 -19 -57 -15 -5 3
-18 2 -27 -2 -9 -4 -44 -9 -76 -10 -50 -3 -64 0 -82 17 -16 15 -32 20 -53 17
-19 -3 -32 0 -35 9 -3 7 -16 13 -28 13 l-23 -1 23 -19 c30 -25 14 -32 -45 -21
-26 6 -74 15 -106 21 -31 6 -63 18 -71 26 -8 8 -18 14 -23 14 -11 0 -91 52
-168 110 -78 58 -329 309 -429 430 -44 52 -113 129 -153 171 -52 53 -74 82
-71 96 3 21 144 157 303 291 164 141 365 355 365 390 0 11 -4 32 -10 46 -17
46 -28 208 -19 271 12 70 43 169 64 202 24 36 110 75 167 75 26 -1 52 -3 57
-7 18 -10 80 55 87 91 6 34 19 45 26 22 3 -8 14 -5 34 9 l30 21 15 -27 c10
-17 13 -36 8 -54 -8 -29 7 -49 17 -23 3 9 15 16 27 16 18 0 19 -2 5 -17 -9
-10 -18 -34 -20 -53 -3 -19 -8 -42 -11 -50 -5 -11 5 -21 34 -34 22 -11 45 -29
51 -40 6 -12 17 -24 24 -29 10 -6 12 -24 7 -72 -5 -59 -4 -65 13 -66 10 -1 26
-2 34 -3 10 -1 16 -14 18 -42 2 -26 11 -49 23 -59 10 -10 19 -24 19 -32 0 -7
5 -13 11 -13 7 0 10 -23 8 -67 -4 -60 -2 -68 14 -67 15 2 17 -8 17 -72 0 -59
3 -74 15 -74 11 0 15 11 15 43 0 50 7 62 27 46 10 -9 13 -8 13 0 0 23 17 1 24
-30 10 -52 31 -30 28 31 -2 37 2 58 13 70 14 16 14 22 -5 72 -11 31 -19 71
-18 89 2 26 -1 33 -12 31 -8 -2 -24 -5 -35 -6 -12 -1 -26 -6 -33 -10 -20 -12
-42 1 -42 25 0 21 -1 21 -19 5 -18 -17 -20 -16 -26 4 -4 11 -2 27 5 35 6 7 10
19 9 27 -5 36 2 68 15 68 8 0 17 7 20 16 4 9 13 14 21 10 8 -3 28 0 43 6 l27
11 -35 9 c-19 5 -42 15 -50 22 -30 26 -37 26 -33 2 4 -17 -1 -27 -15 -35 -28
-15 -36 -1 -42 78 -5 69 -23 90 -39 48 -18 -48 -91 -36 -78 13 3 12 1 18 -5
14 -6 -4 -14 -1 -18 7 -10 16 7 52 21 44 13 -8 11 9 -2 22 -17 17 26 73 55 73
19 0 25 7 30 39 3 21 12 41 19 44 8 3 27 30 43 60 27 52 30 55 46 40 10 -9 18
-24 18 -35z m103 16 c8 -8 -13 -64 -24 -64 -10 0 -11 15 -3 48 6 22 15 27 27
16z m-363 -28 c0 -3 -4 -8 -10 -11 -5 -3 -10 -1 -10 4 0 6 5 11 10 11 6 0 10
-2 10 -4z m570 -42 c0 -16 -23 -44 -35 -44 -18 0 -20 21 -3 38 12 12 38 17 38
6z m-528 -26 c-7 -7 -12 -8 -12 -2 0 14 12 26 19 19 2 -3 -1 -11 -7 -17z m-82
2 c0 -5 -4 -10 -10 -10 -5 0 -10 5 -10 10 0 6 5 10 10 10 6 0 10 -4 10 -10z
m810 -4 c0 -8 -9 -24 -20 -37 -16 -20 -19 -21 -20 -6 0 20 21 57 32 57 5 0 8
-6 8 -14z m-674 -43 c-2 -3 -9 -2 -15 2 -8 4 -7 13 1 28 l13 22 3 -23 c2 -13
1 -26 -2 -29z m394 22 c0 -31 -29 -105 -41 -105 -15 0 -10 50 6 66 8 9 15 26
15 40 0 13 5 24 10 24 6 0 10 -11 10 -25z m205 -135 c-1 -39 -5 -74 -9 -77 -3
-4 -6 -17 -6 -29 0 -23 0 -23 -30 -6 -24 13 -30 24 -30 50 0 17 4 32 10 32 5
0 15 19 21 43 27 91 48 85 44 -13z m145 -51 c0 -5 -4 -9 -10 -9 -5 0 -10 7
-10 16 0 8 5 12 10 9 6 -3 10 -10 10 -16z m-330 -10 c0 -5 -4 -9 -10 -9 -5 0
-10 7 -10 16 0 8 5 12 10 9 6 -3 10 -10 10 -16z m350 -59 c0 -11 -4 -20 -10
-20 -5 0 -10 9 -10 20 0 11 5 20 10 20 6 0 10 -9 10 -20z m-710 -80 c0 -5 -4
-10 -10 -10 -5 0 -10 5 -10 10 0 6 5 10 10 10 6 0 10 -4 10 -10z m890 -12 c0
-7 -5 -20 -10 -28 -8 -12 -10 -9 -10 13 0 15 5 27 10 27 6 0 10 -6 10 -12z
m-90 -29 c0 -24 -23 -21 -28 4 -2 10 3 17 12 17 10 0 16 -9 16 -21z m125 -9
c-3 -5 -10 -10 -16 -10 -5 0 -9 5 -9 10 0 6 7 10 16 10 8 0 12 -4 9 -10z
m-735 -277 c0 -13 6 -23 14 -23 24 0 25 -25 3 -60 l-21 -34 -9 35 c-5 19 -9
45 -10 58 -1 13 -8 26 -14 29 -7 2 -13 16 -13 32 0 61 48 24 50 -37z m1720
-68 c0 -16 36 -39 49 -31 12 8 71 -4 71 -14 0 -13 -81 -31 -113 -25 -46 9 -77
26 -77 42 0 10 7 12 21 8 15 -5 22 -2 26 14 6 24 23 28 23 6z m414 -231 c9 -3
16 -12 16 -20 0 -11 -5 -11 -25 -2 -39 18 -31 37 9 22z m-3839 -464 c-14 -21
-35 -40 -46 -43 -20 -5 -20 -5 -3 21 27 43 68 84 72 72 2 -6 -8 -28 -23 -50z
m-121 -94 c-7 -19 -34 -29 -34 -12 0 16 10 26 26 26 8 0 11 -6 8 -14z m-99
-76 c-10 -11 -21 -17 -24 -14 -3 3 3 12 13 20 28 20 32 17 11 -6z m-59 -45
c-8 -8 -18 -15 -22 -15 -3 0 -1 7 6 15 7 8 17 15 22 15 5 0 3 -7 -6 -15z m-52
-50 c-4 -8 -13 -15 -21 -15 -13 0 -13 3 -3 15 7 8 16 15 21 15 5 0 6 -7 3 -15z
m-69 -64 c-3 -6 -11 -11 -17 -11 -6 0 -6 6 2 15 14 17 26 13 15 -4z m-91 -86
c-20 -25 -44 -45 -53 -45 -10 1 2 17 34 45 27 25 51 45 53 45 2 0 -13 -20 -34
-45z m-74 -59 c0 -15 -21 -26 -47 -26 -12 0 -10 5 7 20 27 23 40 25 40 6z
m-60 -46 c0 -5 -5 -10 -10 -10 -6 0 -16 -11 -22 -25 -6 -14 -21 -28 -33 -31
-13 -3 -27 -17 -34 -30 -6 -13 -22 -29 -36 -36 -14 -6 -25 -15 -25 -20 0 -12
-103 -108 -117 -108 -7 0 -26 -20 -42 -44 -17 -24 -68 -82 -113 -128 -46 -46
-96 -101 -111 -121 -15 -20 -35 -37 -43 -37 -22 0 -16 16 11 28 14 6 25 18 25
26 0 8 6 19 14 23 7 4 39 40 70 78 75 92 266 285 283 285 7 0 13 6 13 13 0 15
140 146 158 147 6 0 12 -4 12 -10z m-467 -385 c9 -4 17 -11 17 -16 0 -5 -62
-73 -137 -151 -76 -78 -132 -138 -125 -134 8 5 12 0 12 -13 0 -12 -4 -21 -9
-21 -5 0 -16 -6 -23 -14 -101 -110 -193 -194 -200 -184 -5 8 -6 2 -2 -14 4
-21 0 -35 -17 -57 -13 -16 -32 -41 -41 -55 -16 -22 -21 -24 -55 -14 -21 6 -72
8 -115 6 -98 -6 -169 -40 -292 -139 -120 -96 -155 -113 -210 -105 -61 10 -105
42 -135 101 -35 68 -36 192 -2 277 32 81 101 169 179 228 72 54 239 140 362
185 41 15 80 31 85 35 27 21 274 83 375 94 54 6 313 -1 333 -9z m6319 -194
c87 -23 201 -76 262 -124 94 -71 184 -187 239 -306 26 -56 31 -79 31 -146 1
-60 -4 -90 -19 -120 -46 -93 -155 -164 -317 -208 -73 -19 -106 -22 -283 -21
-219 1 -195 -4 -515 91 -112 33 -137 36 -245 37 -118 1 -121 0 -195 -35 -67
-32 -138 -82 -278 -194 -24 -20 -48 -33 -53 -29 -15 9 -10 66 11 124 19 51 20
65 10 183 -5 70 -14 136 -20 147 -5 10 -10 31 -10 45 0 14 -4 35 -10 45 -13
24 -31 155 -24 173 12 31 260 154 454 225 131 48 281 90 398 112 152 28 160
28 332 25 116 -3 175 -9 232 -24z m-6474 -60 c-13 -17 -31 -33 -41 -36 -36
-13 -31 7 12 48 49 45 68 37 29 -12z m236 -512 c-3 -5 -10 -7 -15 -3 -5 3 -7
10 -3 15 3 5 10 7 15 3 5 -3 7 -10 3 -15z m-721 -130 c-1 -8 -9 -39 -18 -69
-9 -30 -20 -75 -24 -100 -4 -25 -10 -50 -14 -57 -4 -6 -13 -42 -21 -80 -8 -37
-22 -93 -31 -123 -19 -62 -32 -114 -45 -180 -5 -25 -12 -56 -14 -70 -19 -84
-29 -139 -31 -165 -2 -16 -10 -64 -18 -105 -9 -41 -22 -109 -29 -150 -9 -56
-18 -80 -37 -97 -28 -27 -37 -28 -45 -8 -3 8 3 20 14 28 15 11 23 37 35 118
20 147 48 282 90 449 21 80 40 172 42 205 3 38 11 67 22 80 10 11 29 72 43
140 28 128 56 207 73 201 5 -2 9 -9 8 -17z m317 -89 c0 -5 -5 -10 -11 -10 -5
0 -7 5 -4 10 3 6 8 10 11 10 2 0 4 -4 4 -10z m-50 -198 c0 -15 -4 -32 -9 -37
-5 -6 -12 -30 -15 -55 -17 -137 -31 -195 -48 -198 -15 -3 -16 3 -11 50 3 29
11 60 18 68 13 16 23 52 31 110 15 103 12 90 24 90 6 0 10 -13 10 -28z m-102
-523 c4 -24 3 -24 -12 -4 -19 24 -20 38 -3 33 6 -3 13 -15 15 -29z m-54 -78
c13 -5 16 -10 8 -15 -6 -4 -20 -2 -30 3 -11 6 -22 8 -25 5 -3 -3 -8 -1 -12 5
-7 13 30 14 59 2z m31 -71 c4 -12 1 -28 -6 -36 -8 -10 -9 -21 -2 -37 11 -24
-7 -174 -19 -162 -4 4 -4 13 -2 20 3 7 1 16 -5 19 -7 5 -7 15 1 31 8 19 8 35
0 62 -8 28 -8 40 0 51 9 10 9 19 -1 34 -11 17 -10 22 1 29 20 13 26 11 33 -11z
m-418 -310 c-4 -16 -2 -32 3 -35 19 -12 10 -32 -15 -32 -14 0 -25 3 -25 8 0 5
4 9 9 9 5 0 9 6 8 13 -1 40 4 67 14 67 7 0 9 -11 6 -30z m-9 -174 c-4 -6 -8
-22 -8 -36 0 -15 -6 -53 -12 -86 l-13 -59 -5 55 c-7 59 1 116 21 165 l12 30 7
-30 c3 -16 3 -34 -2 -39z m-28 -210 c0 -14 -4 -27 -9 -30 -12 -8 -22 20 -15
39 9 23 24 18 24 -9z m-68 -189 c-34 -71 -52 -147 -41 -174 5 -13 9 -36 9 -51
-1 -23 -2 -25 -13 -12 -7 9 -22 16 -35 17 -17 1 -26 -7 -37 -34 -17 -41 -20
-89 -5 -98 6 -3 10 -15 10 -27 0 -11 8 -22 20 -25 23 -6 27 -23 5 -23 -17 0
-17 -2 -9 -23 4 -12 10 -12 30 -3 13 6 24 18 24 26 1 9 7 4 15 -11 8 -15 25
-29 38 -33 26 -6 87 -60 87 -76 0 -6 -11 -10 -25 -10 -14 0 -25 4 -25 8 0 4
-14 12 -32 17 -17 6 -34 16 -36 24 -3 9 2 11 18 6 16 -5 21 -4 18 6 -6 18 -42
23 -67 10 -14 -8 -19 -19 -17 -46 4 -41 -6 -37 -39 16 -69 109 -70 214 -5 374
5 11 11 27 14 35 3 8 24 42 46 75 21 33 45 71 51 85 10 21 13 22 16 7 3 -9 -4
-36 -15 -60z m118 -608 c0 -5 -7 -6 -15 -3 -8 4 -15 13 -15 21 0 13 3 13 15 3
8 -7 15 -16 15 -21z m-111 -9 c25 13 41 13 41 0 0 -9 -75 -50 -92 -50 -4 0 -8
14 -8 30 0 28 2 30 20 20 14 -7 26 -8 39 0z m81 -60 c0 -5 -4 -10 -10 -10 -5
0 -10 5 -10 10 0 6 5 10 10 10 6 0 10 -4 10 -10z m-144 -179 c12 -6 24 -22 27
-36 4 -24 2 -26 -22 -20 -41 9 -91 69 -91 107 l1 33 32 -36 c18 -20 42 -42 53
-48z m154 59 c0 -5 -7 -10 -15 -10 -8 0 -15 5 -15 10 0 6 7 10 15 10 8 0 15
-4 15 -10z m-57 -71 c7 0 1 -4 -11 -10 -26 -10 -46 -3 -36 12 3 6 13 8 21 5 8
-3 20 -6 26 -7z m-131 -161 c-7 -7 -12 -20 -12 -29 0 -33 -20 -30 -37 5 -14
30 -14 40 -4 62 l12 27 27 -26 c21 -21 24 -29 14 -39z m158 22 c0 -23 -5 -30
-19 -30 -26 0 -34 15 -21 40 17 31 40 25 40 -10z m-90 10 c13 -9 13 -11 0 -20
-25 -17 -50 -12 -50 10 0 22 25 27 50 10z m400 -191 c0 -5 -4 -9 -10 -9 -5 0
-10 7 -10 16 0 8 5 12 10 9 6 -3 10 -10 10 -16z m-600 -229 c67 -17 81 -27 47
-35 -18 -5 -35 -1 -56 14 -16 12 -36 21 -44 21 -9 0 -19 5 -23 12 -5 7 -2 9 7
6 8 -3 39 -11 69 -18z m58 -142 c7 -7 12 -31 12 -55 0 -34 -4 -43 -17 -43 -15
0 -18 10 -20 55 -2 56 3 65 25 43z m87 -68 c-3 -5 -10 -10 -16 -10 -5 0 -9 5
-9 10 0 6 7 10 16 10 8 0 12 -4 9 -10z m-108 -266 c-3 -3 -12 -4 -19 -1 -8 3
-5 6 6 6 11 1 17 -2 13 -5z m98 -4 c-3 -5 -13 -10 -21 -10 -8 0 -14 5 -14 10
0 6 9 10 21 10 11 0 17 -4 14 -10z"/>
<path d="M5262 9204 c-17 -12 -22 -25 -22 -59 0 -24 4 -46 10 -50 11 -7 46 43
36 52 -3 4 3 17 15 29 35 37 5 59 -39 28z"/>
<path d="M5205 9160 c-8 -13 4 -32 16 -25 12 8 12 35 0 35 -6 0 -13 -4 -16
-10z"/>
<path d="M4966 9028 c80 -84 102 -117 120 -180 23 -83 35 -108 50 -108 16 0
16 -1 18 100 1 42 -3 89 -10 108 -14 33 -54 57 -86 49 -10 -3 -41 15 -77 44
-34 27 -64 49 -68 49 -3 0 21 -28 53 -62z"/>
<path d="M5210 9054 c0 -8 5 -12 10 -9 6 3 10 10 10 16 0 5 -4 9 -10 9 -5 0
-10 -7 -10 -16z"/>
<path d="M4740 8987 c-30 -15 -70 -90 -70 -132 l1 -30 19 37 c11 20 42 56 69
79 27 24 48 47 45 51 -7 12 -35 10 -64 -5z"/>
<path d="M5857 8944 c-3 -4 -3 -14 2 -23 5 -9 12 -38 16 -66 7 -53 36 -91 61
-81 18 7 18 26 -1 50 -8 11 -15 28 -15 39 0 14 5 17 23 11 34 -10 10 9 -26 22
-21 7 -33 18 -35 32 -3 22 -13 28 -25 16z"/>
<path d="M5465 8899 c-4 -5 -4 -22 0 -37 5 -15 8 -36 9 -47 2 -36 21 -31 30 7
13 52 -18 112 -39 77z"/>
<path d="M5784 8855 c-14 -21 -15 -31 -5 -51 15 -34 14 -83 -4 -118 -8 -15
-15 -39 -15 -52 0 -21 3 -23 19 -14 13 6 22 25 26 54 7 42 8 43 43 42 27 -1
37 3 37 14 0 11 -10 14 -37 13 -36 -2 -38 -1 -38 28 0 17 4 38 9 48 11 19 4
61 -10 61 -5 0 -16 -11 -25 -25z"/>
<path d="M5380 8840 c-15 -27 -13 -36 15 -66 14 -15 25 -31 25 -35 0 -5 4 -9
8 -9 4 0 8 24 8 54 1 47 -2 55 -22 65 -20 9 -25 7 -34 -9z"/>
<path d="M5636 8805 c-9 -25 -7 -55 4 -55 14 0 24 50 13 61 -7 7 -12 5 -17 -6z"/>
<path d="M4787 8772 c-22 -24 -23 -122 -2 -163 16 -29 16 -29 80 -23 73 8 85
-2 67 -55 -6 -15 -7 -44 -3 -62 5 -26 12 -35 31 -37 24 -3 25 -1 25 58 1 33
-2 60 -5 60 -4 0 -14 15 -23 34 -14 31 -14 35 -1 40 29 11 41 6 53 -21 17 -38
35 -16 23 28 -6 25 -5 43 6 66 9 18 14 34 11 36 -2 3 -23 7 -45 11 -37 5 -42
3 -47 -15 -4 -16 -12 -20 -34 -17 -23 2 -28 8 -28 31 0 15 -7 32 -15 37 -25
16 -76 11 -93 -8z"/>
<path d="M5240 8744 c0 -8 5 -12 10 -9 6 3 10 10 10 16 0 5 -4 9 -10 9 -5 0
-10 -7 -10 -16z"/>
<path d="M5679 8713 c-15 -38 -15 -42 -1 -48 22 -8 29 5 22 50 l-5 40 -16 -42z"/>
<path d="M5946 8690 c3 -25 7 -59 10 -75 5 -37 -30 -115 -51 -115 -8 0 -19 9
-26 21 -20 37 -30 6 -23 -70 7 -70 8 -72 32 -69 14 2 28 9 30 17 3 9 0 12 -11
8 -22 -8 -27 1 -15 33 7 21 22 34 53 46 57 21 82 48 66 68 -14 17 -17 68 -6
109 6 23 4 27 -13 27 -11 0 -27 10 -36 23 -15 21 -15 20 -10 -23z"/>
<path d="M5537 8697 c-3 -7 -1 -20 3 -28 7 -11 10 -10 16 4 4 10 2 23 -3 28
-7 7 -12 6 -16 -4z"/>
<path d="M5605 8700 c-3 -5 -1 -10 4 -10 6 0 11 5 11 10 0 6 -2 10 -4 10 -3 0
-8 -4 -11 -10z"/>
<path d="M5261 8674 c0 -11 3 -14 6 -6 3 7 2 16 -1 19 -3 4 -6 -2 -5 -13z"/>
<path d="M5860 8659 c0 -11 5 -17 10 -14 6 3 10 13 10 21 0 8 -4 14 -10 14 -5
0 -10 -9 -10 -21z"/>
<path d="M5590 8660 c0 -5 7 -10 15 -10 8 0 15 5 15 10 0 6 -7 10 -15 10 -8 0
-15 -4 -15 -10z"/>
<path d="M5295 8640 c-4 -6 -2 -17 4 -24 7 -8 10 -18 9 -22 -2 -5 2 -11 7 -14
6 -3 11 7 13 21 3 28 -21 58 -33 39z"/>
<path d="M6166 8641 c-9 -14 4 -41 19 -41 15 0 24 19 18 38 -5 14 -29 16 -37
3z"/>
<path d="M5557 8593 c-2 -4 -10 -30 -17 -56 -10 -37 -10 -54 -1 -73 18 -39 34
-19 27 35 -6 51 0 67 27 72 10 2 18 9 18 14 0 12 -47 19 -54 8z"/>
<path d="M5743 8589 c-16 -16 -17 -49 -3 -49 13 0 23 24 18 45 -2 13 -5 14
-15 4z"/>
<path d="M5826 8584 c-8 -21 -8 -21 9 -28 11 -4 15 1 15 19 0 28 -15 33 -24 9z"/>
<path d="M6060 8575 c0 -9 5 -15 11 -13 6 2 11 8 11 13 0 5 -5 11 -11 13 -6 2
-11 -4 -11 -13z"/>
<path d="M6191 8554 c0 -11 3 -14 6 -6 3 7 2 16 -1 19 -3 4 -6 -2 -5 -13z"/>
<path d="M4720 8551 c0 -5 5 -13 10 -16 6 -3 10 -2 10 4 0 5 -4 13 -10 16 -5
3 -10 2 -10 -4z"/>
<path d="M6030 8510 c0 -5 4 -10 9 -10 6 0 13 5 16 10 3 6 -1 10 -9 10 -9 0
-16 -4 -16 -10z"/>
<path d="M5677 8482 c-27 -29 -21 -45 8 -26 14 9 25 23 25 30 0 19 -14 17 -33
-4z"/>
<path d="M5750 8487 c0 -8 7 -17 15 -21 8 -3 15 -2 15 3 0 5 -7 14 -15 21 -12
10 -15 10 -15 -3z"/>
<path d="M5588 8472 c-4 -12 -2 -25 4 -28 16 -10 22 4 11 28 l-10 22 -5 -22z"/>
<path d="M6046 8431 c-4 -5 -2 -12 3 -15 5 -4 12 -2 15 3 4 5 2 12 -3 15 -5 4
-12 2 -15 -3z"/>
<path d="M5991 8414 c0 -11 3 -14 6 -6 3 7 2 16 -1 19 -3 4 -6 -2 -5 -13z"/>
<path d="M5600 8398 c0 -7 4 -19 9 -27 11 -17 25 3 17 24 -7 18 -26 20 -26 3z"/>
<path d="M5516 8343 c-8 -53 -8 -133 2 -133 12 0 30 92 24 133 -2 20 -8 37
-12 37 -4 0 -10 -17 -14 -37z"/>
<path d="M5986 8351 c-12 -13 -14 -21 -6 -26 18 -11 40 3 40 25 0 25 -12 26
-34 1z"/>
<path d="M5347 8354 c-10 -10 -9 -44 2 -44 13 0 23 32 13 42 -5 5 -11 5 -15 2z"/>
<path d="M5897 8336 c-7 -18 28 -22 53 -6 13 8 13 10 -2 10 -9 0 -23 3 -31 6
-8 3 -17 -2 -20 -10z"/>
<path d="M5410 8255 c0 -8 2 -15 4 -15 2 0 6 7 10 15 3 8 1 15 -4 15 -6 0 -10
-7 -10 -15z"/>
<path d="M6007 8263 c-12 -11 -8 -23 8 -23 8 0 15 7 15 15 0 16 -12 20 -23 8z"/>
<path d="M5029 8225 c-8 -20 -27 -45 -44 -56 -21 -14 -24 -19 -9 -14 34 9 55
-4 48 -30 -3 -13 -1 -26 5 -29 7 -5 11 2 11 16 0 14 7 33 15 44 15 20 19 61 9
88 -10 25 -22 19 -35 -19z"/>
<path d="M7665 8200 c3 -5 8 -10 11 -10 2 0 4 5 4 10 0 6 -5 10 -11 10 -5 0
-7 -4 -4 -10z"/>
<path d="M6265 7740 c-11 -11 -31 -21 -45 -24 -14 -2 -27 -5 -30 -5 -3 -1 2
-6 10 -11 25 -16 76 -11 101 9 20 16 21 21 10 35 -17 21 -22 20 -46 -4z"/>
<path d="M5916 7731 c-7 -11 11 -26 44 -36 28 -9 70 -49 70 -68 1 -7 21 -25
45 -40 44 -28 57 -47 33 -47 -9 0 -9 -3 -1 -11 8 -8 17 -8 33 1 18 10 25 9 40
-8 12 -12 39 -23 70 -27 l52 -7 -7 -45 c-4 -31 -3 -43 4 -38 6 3 11 12 11 19
0 20 40 67 52 60 5 -3 7 -15 5 -26 -7 -26 15 -18 28 10 11 24 25 29 25 10 1
-20 30 24 30 44 0 22 -25 23 -62 4 -28 -15 -42 -14 -113 6 -48 14 -76 33 -158
105 -77 67 -186 118 -201 94z"/>
<path d="M6317 7668 c-23 -6 -36 -15 -32 -22 3 -6 7 -18 11 -26 6 -19 70 -40
121 -40 21 0 58 -9 82 -20 24 -11 53 -20 65 -20 11 0 40 -11 64 -25 23 -13 49
-22 57 -19 9 4 19 -4 26 -20 10 -22 9 -29 -6 -46 -24 -27 -8 -47 25 -30 17 9
19 14 9 26 -9 11 -9 17 1 29 16 19 30 19 44 1 6 -8 20 -16 31 -17 27 -3 95 11
95 21 0 14 -36 36 -90 54 -30 10 -68 27 -85 37 -16 9 -68 29 -115 44 -47 15
-89 31 -95 35 -5 4 -34 10 -64 12 -34 4 -59 11 -66 22 -14 18 -23 18 -78 4z"/>
<path d="M6586 7478 c-20 -28 -20 -34 -1 -42 15 -5 75 23 75 37 0 6 -42 27
-55 27 -2 0 -11 -10 -19 -22z"/>
<path d="M6507 7473 c-13 -12 -7 -41 9 -47 23 -9 28 -2 20 29 -6 25 -16 31
-29 18z"/>
<path d="M7001 7452 c-11 -22 -61 -162 -61 -174 0 -26 21 1 45 60 16 37 36 76
47 88 10 11 18 26 18 32 0 19 -38 14 -49 -6z"/>
<path d="M6620 7410 c0 -5 6 -10 14 -10 8 0 18 5 21 10 3 6 -3 10 -14 10 -12
0 -21 -4 -21 -10z"/>
<path d="M5165 7274 c-9 -9 -14 -23 -11 -30 3 -7 1 -16 -4 -19 -7 -4 -6 -13 0
-25 5 -10 9 -29 8 -42 -3 -40 31 -73 87 -86 101 -23 135 -26 135 -10 0 30
-168 228 -193 228 -3 0 -13 -7 -22 -16z"/>
<path d="M6330 7253 c-39 -14 -140 -67 -140 -73 0 -4 10 -11 23 -14 21 -7 21
-8 -10 -23 -32 -16 -44 -33 -23 -33 6 0 19 5 30 12 15 10 22 9 38 -5 22 -20
31 -13 55 46 10 23 26 41 42 47 41 15 26 57 -15 43z"/>
<path d="M5860 7060 c0 -13 60 -13 80 0 11 7 2 10 -32 10 -27 0 -48 -4 -48
-10z"/>
<path d="M5747 6983 c-24 -17 -34 -30 -28 -36 5 -5 50 -7 103 -5 68 4 103 1
131 -10 28 -11 41 -12 49 -4 28 28 -58 62 -155 62 -24 0 -47 4 -53 10 -6 6
-23 1 -47 -17z"/>
<path d="M5680 6965 c7 -9 15 -13 17 -11 7 7 -7 26 -19 26 -6 0 -6 -6 2 -15z"/>
<path d="M6415 6869 c-5 -14 -2 -25 6 -30 19 -12 99 -11 99 1 0 13 -38 36 -72
44 -21 5 -28 2 -33 -15z"/>
<path d="M6010 6790 c0 -11 62 -52 68 -45 3 2 -3 16 -12 30 -16 24 -56 35 -56
15z"/>
<path d="M6110 6719 c0 -13 71 -32 81 -22 6 6 -8 13 -36 20 -25 6 -45 7 -45 2z"/>
<path d="M7607 603 c3 -38 6 -78 6 -90 -1 -13 3 -23 8 -23 5 0 7 -11 3 -25 -5
-22 -2 -26 25 -31 17 -4 31 -11 31 -16 0 -6 11 -7 25 -4 24 6 25 4 26 -41 1
-27 2 -56 2 -66 0 -21 -6 -22 182 45 146 53 462 185 524 219 l36 20 -50 -6
c-267 -30 -519 -8 -749 66 -33 10 -63 19 -67 19 -4 0 -5 -30 -2 -67z"/>
<path d="M7643 404 c-3 -8 -3 -34 -1 -58 3 -24 1 -51 -4 -60 -14 -25 -5 -29
40 -15 34 10 40 15 37 37 -1 14 -13 33 -25 42 -14 11 -18 19 -11 21 15 5 4 36
-15 43 -8 3 -17 -1 -21 -10z"/>
</g>
</svg>
